<?xml version="1.0" standalone="no"?>
<!DOCTYPE svg PUBLIC "-//W3C//DTD SVG 20010904//EN"
 "http://www.w3.org/TR/2001/REC-SVG-20010904/DTD/svg10.dtd">
<svg version="1.0" xmlns="http://www.w3.org/2000/svg"
 width="1000.000000pt" height="1000.000000pt" viewBox="0 0 1000.000000 1000.000000"
 preserveAspectRatio="xMidYMid meet">
<metadata>
Created by potrace 1.14, written by Peter Selinger 2001-2017
</metadata>
<g transform="translate(0.000000,1000.000000) scale(0.100000,-0.100000)"
fill="#000000" stroke="none">
<path d="M2437 8914 c-1 -1 -69 -4 -152 -8 -168 -7 -191 -9 -322 -31 -101 -17
-214 -45 -308 -76 -78 -26 -266 -108 -286 -126 -8 -7 -19 -13 -23 -13 -13 0
-147 -90 -215 -145 -310 -250 -524 -599 -636 -1039 -31 -122 -63 -285 -71
-366 -2 -19 -6 -48 -8 -65 -27 -174 -27 -744 0 -875 2 -14 6 -41 8 -60 6 -48
15 -110 22 -140 3 -14 8 -36 10 -50 3 -14 10 -43 16 -65 5 -22 12 -51 15 -65
8 -45 70 -223 108 -309 162 -368 431 -647 825 -858 89 -47 259 -122 350 -153
36 -12 72 -25 80 -28 8 -3 17 -6 20 -7 3 0 46 -14 95 -29 154 -47 303 -93 490
-150 491 -151 692 -275 794 -490 63 -132 76 -207 75 -421 0 -178 -15 -247 -80
-380 -114 -235 -343 -371 -689 -411 -42 -5 -336 -5 -360 0 -11 2 -42 7 -70 10
-27 4 -70 9 -95 12 -25 3 -61 10 -80 14 -19 5 -47 11 -61 14 -44 7 -219 56
-284 78 -204 70 -447 181 -665 306 -92 52 -384 241 -481 311 -19 13 -19 -2
-19 -801 l0 -815 142 -68 c350 -166 771 -313 1063 -370 22 -5 45 -9 50 -11 99
-23 282 -51 475 -71 153 -16 676 -8 790 12 8 1 35 6 60 9 718 109 1203 481
1455 1116 21 52 43 115 50 140 8 25 22 77 33 115 43 149 79 346 97 525 3 30 8
78 11 105 13 130 19 514 9 655 -9 138 -32 336 -40 350 -1 3 -6 28 -9 55 -20
149 -105 413 -186 576 -212 422 -627 733 -1245 933 -117 37 -691 200 -747 211
-50 10 -295 98 -370 133 -288 134 -405 307 -412 608 -6 238 48 416 166 548
104 117 279 204 463 231 22 4 47 8 55 10 86 23 444 23 580 1 14 -3 43 -7 65
-10 109 -14 380 -82 482 -120 21 -8 72 -26 113 -41 41 -15 103 -41 138 -56 35
-16 66 -29 68 -29 20 0 463 -234 474 -251 3 -4 16 -10 30 -14 l25 -6 0 787 0
786 -65 24 c-224 83 -657 204 -885 249 -16 3 -41 8 -55 10 -14 3 -38 8 -55 10
-16 3 -55 10 -85 15 -30 5 -80 12 -110 15 -30 4 -62 8 -70 10 -8 2 -44 7 -80
10 -36 4 -81 8 -100 11 -30 3 -141 9 -338 18 -24 1 -44 1 -45 0z"/>
<path d="M4907 8772 c-2 -4 -3 -1688 -2 -3742 l1 -3735 699 0 700 0 2 1370 c1
754 2 1391 3 1416 l0 46 258 -2 c286 -3 362 -13 479 -66 116 -52 195 -116 276
-223 131 -172 234 -393 386 -826 34 -96 66 -184 71 -195 4 -11 15 -40 23 -65
17 -51 52 -149 272 -765 86 -242 175 -492 197 -555 22 -63 45 -119 50 -125 6
-6 269 -10 748 -11 l739 0 -6 25 c-3 14 -11 37 -16 51 -6 14 -11 27 -11 30 -2
9 -68 195 -76 215 -5 11 -32 85 -60 165 -28 80 -55 154 -60 165 -4 11 -13 34
-18 50 -43 122 -185 524 -192 540 -5 11 -34 92 -65 180 -31 88 -65 183 -75
210 -10 28 -46 129 -80 225 -34 96 -65 184 -70 195 -5 11 -27 72 -50 135 -220
604 -452 996 -698 1178 -64 48 -180 111 -230 127 -21 6 -17 10 36 35 244 115
431 267 612 497 136 172 285 544 324 808 4 23 8 52 11 65 2 13 7 46 10 74 3
28 8 69 11 91 20 158 19 556 -1 735 -3 25 -8 68 -11 95 -4 43 -34 216 -48 280
-41 185 -129 408 -220 555 -178 290 -443 495 -799 616 -98 34 -221 68 -287 79
-151 27 -204 35 -265 40 -38 4 -81 9 -95 12 -36 8 -2469 13 -2473 5z m2203
-1408 c357 -61 526 -242 591 -634 14 -89 20 -435 8 -535 -19 -168 -47 -273
-100 -384 -71 -147 -211 -264 -369 -307 -138 -37 -201 -42 -570 -43 l-365 -2
2 943 c1 519 2 951 3 961 0 17 19 18 358 16 257 -1 381 -5 442 -15z"/>
</g>
</svg>
